HIERARCHY
ROOT hip
{
  OFFSET -1.41908 81.964 218.675
  CHANNELS 6 Xposition Yposition Zposition Zrotation Xrotation Yrotation
  JOINT abdomen
  {
    OFFSET 0 20.6881 -0.73152
    CHANNELS 3 Zrotation Xrotation Yrotation
    JOINT chest
    {
      OFFSET 0 11.7043 -0.48768
      CHANNELS 3 Zrotation Xrotation Yrotation
      JOINT neck
      {
        OFFSET 0 22.1894 -2.19456
        CHANNELS 3 Zrotation Xrotation Yrotation
        JOINT head
        {
          OFFSET -0.24384 7.07133 1.2192
          CHANNELS 3 Zrotation Xrotation Yrotation
          JOINT leftEye
          {
            OFFSET 4.14528 8.04674 8.04672
            CHANNELS 3 Zrotation Xrotation Yrotation
            End Site
            {
              OFFSET 1 0 0
            }
          }
          JOINT rightEye
          {
            OFFSET -3.6576 8.04674 8.04672
            CHANNELS 3 Zrotation Xrotation Yrotation
            End Site
            {
              OFFSET 1 0 0
            }
          }
        }
      }
      JOINT rCollar
      {
        OFFSET -2.68224 19.2634 -4.8768
        CHANNELS 3 Zrotation Xrotation Yrotation
        JOINT rShldr
        {
          OFFSET -8.77824 -1.95073 1.46304
          CHANNELS 3 Zrotation Xrotation Yrotation
          JOINT rForeArm
          {
            OFFSET -28.1742 -1.7115 0.48768
            CHANNELS 3 Zrotation Xrotation Yrotation
            JOINT rHand
            {
              OFFSET -22.5879 0.773209 7.07136
              CHANNELS 3 Zrotation Xrotation Yrotation
              JOINT rThumb1
              {
                OFFSET -1.2192 -0.487915 3.41376
                CHANNELS 3 Zrotation Xrotation Yrotation
                JOINT rThumb2
                {
                  OFFSET -3.37035 -0.52449 3.41376
                  CHANNELS 3 Zrotation Xrotation Yrotation
                  End Site
                  {
                    OFFSET -1.78271 -1.18214 1.43049
                  }
                }
              }
              JOINT rIndex1
              {
                OFFSET -7.75947 0.938293 5.60832
                CHANNELS 3 Zrotation Xrotation Yrotation
                JOINT rIndex2
                {
                  OFFSET -2.54057 -0.884171 1.56538
                  CHANNELS 3 Zrotation Xrotation Yrotation
                  End Site
                  {
                    OFFSET -1.62519 -0.234802 1.16502
                  }
                }
              }
              JOINT rMid1
              {
                OFFSET -8.24714 1.18213 3.41376
                CHANNELS 3 Zrotation Xrotation Yrotation
                JOINT rMid2
                {
                  OFFSET -3.10165 -0.590103 1.0647
                  CHANNELS 3 Zrotation Xrotation Yrotation
                  End Site
                  {
                    OFFSET -2.48547 -0.328903 0.83742
                  }
                }
              }
              JOINT rRing1
              {
                OFFSET -8.82822 0.546677 1.51678
                CHANNELS 3 Zrotation Xrotation Yrotation
                JOINT rRing2
                {
                  OFFSET -2.60934 -0.819778 -0.0198488
                  CHANNELS 3 Zrotation Xrotation Yrotation
                  End Site
                  {
                    OFFSET -2.33842 -0.294052 0.168128
                  }
                }
              }
              JOINT rPinky1
              {
                OFFSET -8.27202 -0.0477905 -0.4584
                CHANNELS 3 Zrotation Xrotation Yrotation
                JOINT rPinky2
                {
                  OFFSET -1.82734 -0.647385 -0.700984
                  CHANNELS 3 Zrotation Xrotation Yrotation
                  End Site
                  {
                    OFFSET -1.69225 -0.51767 -0.607171
                  }
                }
              }
            }
          }
        }
      }
      JOINT lCollar
      {
        OFFSET 2.68224 19.2634 -4.8768
        CHANNELS 3 Zrotation Xrotation Yrotation
        JOINT lShldr
        {
          OFFSET 8.77824 -1.95073 1.46304
          CHANNELS 3 Zrotation Xrotation Yrotation
          JOINT lForeArm
          {
            OFFSET 28.1742 -1.7115 0.48768
            CHANNELS 3 Zrotation Xrotation Yrotation
            JOINT lHand
            {
              OFFSET 22.5879 0.773209 7.07136
              CHANNELS 3 Zrotation Xrotation Yrotation
              JOINT lThumb1
              {
                OFFSET 1.2192 -0.487915 3.41376
                CHANNELS 3 Zrotation Xrotation Yrotation
                JOINT lThumb2
                {
                  OFFSET 3.37035 -0.52449 3.41376
                  CHANNELS 3 Zrotation Xrotation Yrotation
                  End Site
                  {
                    OFFSET 1.78271 -1.18214 1.43049
                  }
                }
              }
              JOINT lIndex1
              {
                OFFSET 7.75947 0.938293 5.60832
                CHANNELS 3 Zrotation Xrotation Yrotation
                JOINT lIndex2
                {
                  OFFSET 2.54057 -0.884171 1.56538
                  CHANNELS 3 Zrotation Xrotation Yrotation
                  End Site
                  {
                    OFFSET 1.62519 -0.234802 1.16502
                  }
                }
              }
              JOINT lMid1
              {
                OFFSET 8.24714 1.18213 3.41376
                CHANNELS 3 Zrotation Xrotation Yrotation
                JOINT lMid2
                {
                  OFFSET 3.10165 -0.590103 1.0647
                  CHANNELS 3 Zrotation Xrotation Yrotation
                  End Site
                  {
                    OFFSET 2.48547 -0.328903 0.83742
                  }
                }
              }
              JOINT lRing1
              {
                OFFSET 8.82822 0.546677 1.51678
                CHANNELS 3 Zrotation Xrotation Yrotation
                JOINT lRing2
                {
                  OFFSET 2.60934 -0.819778 -0.0198488
                  CHANNELS 3 Zrotation Xrotation Yrotation
                  End Site
                  {
                    OFFSET 2.33842 -0.294052 0.168128
                  }
                }
              }
              JOINT lPinky1
              {
                OFFSET 8.27202 -0.0477905 -0.4584
                CHANNELS 3 Zrotation Xrotation Yrotation
                JOINT lPinky2
                {
                  OFFSET 1.82734 -0.647385 -0.700984
                  CHANNELS 3 Zrotation Xrotation Yrotation
                  End Site
                  {
                    OFFSET 1.69225 -0.51767 -0.607171
                  }
                }
              }
            }
          }
        }
      }
    }
  }
  JOINT rButtock
  {
    OFFSET -8.77824 4.35084 1.2192
    CHANNELS 3 Zrotation Xrotation Yrotation
    JOINT rThigh
    {
      OFFSET 0 -1.70687 -2.19456
      CHANNELS 3 Zrotation Xrotation Yrotation
      JOINT rShin
      {
        OFFSET 0 -36.8199 0.73152
        CHANNELS 3 Zrotation Xrotation Yrotation
        JOINT rFoot
        {
          OFFSET 0.73152 -45.1104 -5.12064
          CHANNELS 3 Zrotation Xrotation Yrotation
          End Site
          {
            OFFSET -1.1221 -3.69964 12.103
          }
        }
      }
    }
  }
  JOINT lButtock
  {
    OFFSET 8.77824 4.35084 1.2192
    CHANNELS 3 Zrotation Xrotation Yrotation
    JOINT lThigh
    {
      OFFSET 0 -1.70687 -2.19456
      CHANNELS 3 Zrotation Xrotation Yrotation
      JOINT lShin
      {
        OFFSET 0 -36.8199 0.73152
        CHANNELS 3 Zrotation Xrotation Yrotation
        JOINT lFoot
        {
          OFFSET -0.73152 -45.1104 -5.12064
          CHANNELS 3 Zrotation Xrotation Yrotation
          End Site
          {
            OFFSET 1.1221 -3.69964 12.103
          }
        }
      }
    }
  }
}
MOTION
Frames:	5
Frame Time:	0.00833333
5.66841 82.1706 33.4141 4.36886 -0.00236088 3.41815 -2.12122 4.90125 -7.99065 6.58508 -2.54528 -2.10474 -9.97715 -0.318541 -1.81339 6.72143 3.18066 -0.987636 -0 0 0 -0 0 0 1.46455e-014 -2.1057e-014 2.77984e-016 81.171 2.73911 -10.032 -10.3756 -4.37295 18.5075 -0.204817 12.7885 1.82805 2.36241e-010 -3.48153e-010 3.2805e-010 4.12374e-010 -6.03883e-010 5.64062e-010 2.36248e-010 -3.4815e-010 3.28034e-010 7.73091 5.47488 0.417314 2.36241e-010 -3.48154e-010 3.28047e-010 2.90554 0.965183 0.102902 2.36251e-010 -3.48155e-010 3.28044e-010 10.2786 0.731801 0.0259123 2.36243e-010 -3.48156e-010 3.28052e-010 2.22167 -0.733487 -0.20892 1.46144e-014 -2.10555e-014 8.11441e-017 -72.8495 22.2423 -8.36781 15.9264 -8.619 -29.5175 0.137616 10.5166 -1.49501 6.346e-010 1.0615e-009 2.25576e-010 1.10167e-009 1.83545e-009 3.84332e-010 6.34591e-010 1.0615e-009 2.25588e-010 -7.73091 5.47488 -0.417314 6.34603e-010 1.06151e-009 2.25576e-010 -2.90554 0.965183 -0.102902 6.34599e-010 1.06151e-009 2.2557e-010 -10.2786 0.731801 -0.0259123 6.34604e-010 1.06151e-009 2.25563e-010 -2.22167 -0.733487 0.20892 -2.03217e-016 0 -3.88251e-019 -4.30803 -31.44 1.85286 -0.125718 21.9227 0.0437905 -0.416639 4.67781 -1.70847 2.03217e-016 0 3.88251e-019 -5.40463 12.5072 -5.35327 0.113596 24.6669 -0.445643 0.0366022 -3.58615 -3.85692 
5.40068 82.2272 34.7361 3.93992 -0.121028 3.30543 -1.65017 4.75699 -7.92087 6.47799 -2.65298 -2.07021 -9.99025 -0.171416 -1.78901 6.71663 3.49122 -0.980076 -0 0 0 -0 0 0 1.72413e-015 -2.84313e-014 -3.01159e-014 81.1444 2.43121 -10.3326 -10.2404 -4.2887 18.253 -0.225446 13.4008 1.91883 4.52169e-010 -4.87827e-010 5.07111e-010 7.87215e-010 -8.45865e-010 8.70948e-010 4.52177e-010 -4.87825e-010 5.07095e-010 7.73091 5.47488 0.417314 4.5217e-010 -4.87829e-010 5.07108e-010 2.90554 0.965183 0.102902 4.5218e-010 -4.87829e-010 5.07105e-010 10.2786 0.731801 0.0259123 4.52173e-010 -4.8783e-010 5.07114e-010 2.22167 -0.733487 -0.20892 1.75466e-015 -2.84212e-014 -3.03147e-014 -73.1952 22.0387 -7.86471 15.9549 -8.64535 -29.5775 0.134008 10.3804 -1.47521 8.6298e-010 1.54985e-009 3.81024e-010 1.49786e-009 2.6798e-009 6.51273e-010 8.6297e-010 1.54985e-009 3.81037e-010 -7.73091 5.47488 -0.417314 8.62982e-010 1.54985e-009 3.81024e-010 -2.90554 0.965183 -0.102902 8.6298e-010 1.54985e-009 3.81018e-010 -10.2786 0.731801 -0.0259123 8.62984e-010 1.54986e-009 3.81011e-010 -2.22167 -0.733487 0.20892 -2.03217e-016 0 -3.88251e-019 -3.56466 -31.1199 2.44602 -0.131226 22.3943 0.0305347 -0.396069 5.66671 -1.0213 2.03217e-016 0 3.88251e-019 -4.88225 12.0918 -5.47446 0.130469 26.2128 -0.46014 0.128699 -1.29619 -4.52362 
5.13079 82.2528 35.9713 3.41017 -0.208674 3.07307 -0.991881 4.61739 -7.78514 6.29787 -2.77211 -2.0166 -9.96471 -0.140304 -1.7673 6.61121 3.88949 -0.970841 -0 0 0 -0 0 0 -5.3464e-015 -2.68485e-014 -4.79844e-014 81.0903 2.14856 -10.6116 -10.1235 -4.21614 18.0343 -0.248786 14.0635 2.01754 6.37558e-010 -6.22997e-010 5.46594e-010 1.10812e-009 -1.08001e-009 9.36812e-010 6.37564e-010 -6.22995e-010 5.46579e-010 7.73091 5.47488 0.417314 6.37557e-010 -6.22998e-010 5.4659e-010 2.90554 0.965183 0.102902 6.37567e-010 -6.22998e-010 5.46588e-010 10.2786 0.731801 0.0259123 6.37561e-010 -6.22999e-010 5.46596e-010 2.22167 -0.733487 -0.20892 -5.29367e-015 -2.68348e-014 -4.81505e-014 -73.601 21.7745 -7.31767 15.98 -8.66852 -29.6304 0.129642 10.2142 -1.45106 1.00047e-009 1.84934e-009 4.10669e-010 1.73545e-009 3.19643e-009 7.01171e-010 1.00046e-009 1.84934e-009 4.10683e-010 -7.73091 5.47488 -0.417314 1.00047e-009 1.84934e-009 4.10668e-010 -2.90554 0.965183 -0.102902 1.00047e-009 1.84934e-009 4.10664e-010 -10.2786 0.731801 -0.0259123 1.00047e-009 1.84934e-009 4.10657e-010 -2.22167 -0.733487 0.20892 -2.03217e-016 0 -3.88251e-019 -2.74575 -30.8452 2.49384 -0.139376 23.1529 0.0253809 -0.408027 5.89454 -0.310295 2.03217e-016 0 3.88251e-019 -4.30954 11.4044 -5.43944 0.151618 28.0007 -0.480323 0.320454 1.46985 -5.07208 
4.89556 82.2838 37.1742 2.79566 -0.274267 2.75343 -0.182273 4.4769 -7.60086 6.05961 -2.91344 -1.94783 -9.91273 -0.180597 -1.74669 6.43536 4.37023 -0.961757 -0 0 0 -0 0 0 -6.82913e-015 -1.95969e-014 -5.88185e-014 81.0215 1.90395 -10.8848 -10.028 -4.15768 17.8549 -0.273937 14.745 2.11964 7.76701e-010 -7.49766e-010 5.05023e-010 1.34844e-009 -1.29958e-009 8.62837e-010 7.76706e-010 -7.49765e-010 5.05008e-010 7.73091 5.47488 0.417314 7.767e-010 -7.49766e-010 5.05017e-010 2.90554 0.965183 0.102902 7.76709e-010 -7.49765e-010 5.05016e-010 10.2786 0.731801 0.0259123 7.76703e-010 -7.49766e-010 5.05024e-010 2.22167 -0.733487 -0.20892 -6.77572e-015 -1.95821e-014 -5.89303e-014 -74.0627 21.4652 -6.71493 16.0006 -8.68765 -29.6739 0.124821 10.0264 -1.42381 1.05858e-009 1.97446e-009 3.41078e-010 1.83467e-009 3.41086e-009 5.80048e-010 1.05857e-009 1.97446e-009 3.41094e-010 -7.73091 5.47488 -0.417314 1.05858e-009 1.97446e-009 3.41078e-010 -2.90554 0.965183 -0.102902 1.05858e-009 1.97446e-009 3.41075e-010 -10.2786 0.731801 -0.0259123 1.05859e-009 1.97446e-009 3.41069e-010 -2.22167 -0.733487 0.20892 -2.03217e-016 0 -3.88251e-019 -1.85854 -30.5919 2.20058 -0.148959 24.0511 0.0236176 -0.42355 5.63309 0.397881 2.03217e-016 0 3.88251e-019 -3.68526 10.4915 -5.28747 0.177132 29.988 -0.504328 0.601771 4.63082 -5.57517 
4.6879 82.3954 38.4369 2.17155 -0.348462 2.42603 0.644888 4.3795 -7.40463 5.81865 -3.04872 -1.87507 -9.86147 -0.25466 -1.73027 6.2726 4.82702 -0.954061 -0 0 0 -0 0 0 -6.72933e-015 -1.2079e-014 -6.40603e-014 80.9639 1.73293 -11.1089 -9.96926 -4.1223 17.7445 -0.295202 15.2865 2.20132 8.69981e-010 -8.35756e-010 4.40041e-010 1.50925e-009 -1.4485e-009 7.48914e-010 8.69984e-010 -8.35755e-010 4.40027e-010 7.73091 5.47488 0.417314 8.69979e-010 -8.35755e-010 4.40034e-010 2.90554 0.965183 0.102902 8.69988e-010 -8.35754e-010 4.40033e-010 10.2786 0.731801 0.0259123 8.69982e-010 -8.35753e-010 4.40041e-010 2.22167 -0.733487 -0.20892 -6.69071e-015 -1.20646e-014 -6.4124e-014 -74.5282 21.1453 -6.12646 16.0137 -8.6998 -29.7014 0.120504 9.85289 -1.39867 1.07314e-009 1.99761e-009 2.48312e-010 1.85838e-009 3.4491e-009 4.19245e-010 1.07313e-009 1.99761e-009 2.48329e-010 -7.73091 5.47488 -0.417314 1.07314e-009 1.99761e-009 2.48311e-010 -2.90554 0.965183 -0.102902 1.07314e-009 1.99761e-009 2.48312e-010 -10.2786 0.731801 -0.0259123 1.07314e-009 1.99761e-009 2.48304e-010 -2.22167 -0.733487 0.20892 -2.03217e-016 0 -3.88251e-019 -0.956529 -30.2614 1.84495 -0.15799 24.902 0.0199183 -0.426769 5.16937 1.00132 2.03217e-016 0 3.88251e-019 -3.05204 9.44264 -5.10782 0.206247 32.0887 -0.532738 0.953151 7.96423 -6.10741 
